<?xml version="1.0" encoding="UTF-8" standalone="no"?>
<!-- Created with Inkscape (http://www.inkscape.org/) -->

<svg
   xmlns:dc="http://purl.org/dc/elements/1.1/"
   xmlns:cc="http://creativecommons.org/ns#"
   xmlns:rdf="http://www.w3.org/1999/02/22-rdf-syntax-ns#"
   xmlns:svg="http://www.w3.org/2000/svg"
   xmlns="http://www.w3.org/2000/svg"
   xmlns:sodipodi="http://sodipodi.sourceforge.net/DTD/sodipodi-0.dtd"
   xmlns:inkscape="http://www.inkscape.org/namespaces/inkscape"
   width="500"
   height="500"
   viewBox="0 0 499.99998 499.99999"
   id="svg2"
   version="1.1"
   inkscape:version="0.91 r13725"
   sodipodi:docname="clearAll_sel.svg">
  <defs
     id="defs4">
    <inkscape:path-effect
       effect="skeletal"
       id="path-effect4727"
       is_visible="true"
       pattern="m -1.5258789e-5,557.36201 c 0,-2.76 2.239999958789,-5 4.999999958789,-5 2.76,0 5,2.24 5,5 0,2.76 -2.24,5 -5,5 -2.76,0 -4.999999958789,-2.24 -4.999999958789,-5 z"
       copytype="single_stretched"
       prop_scale="1"
       scale_y_rel="false"
       spacing="0"
       normal_offset="0"
       tang_offset="0"
       prop_units="false"
       vertical_pattern="false"
       fuse_tolerance="0" />
    <inkscape:path-effect
       effect="skeletal"
       id="path-effect4723"
       is_visible="true"
       pattern="m -1.5258789e-5,557.36201 c 0,-2.76 2.239999958789,-5 4.999999958789,-5 2.76,0 5,2.24 5,5 0,2.76 -2.24,5 -5,5 -2.76,0 -4.999999958789,-2.24 -4.999999958789,-5 z"
       copytype="single_stretched"
       prop_scale="1"
       scale_y_rel="false"
       spacing="0"
       normal_offset="0"
       tang_offset="0"
       prop_units="false"
       vertical_pattern="false"
       fuse_tolerance="0" />
    <inkscape:path-effect
       effect="skeletal"
       id="path-effect4719"
       is_visible="true"
       pattern="m -1.5258789e-5,557.36201 c 0,-2.76 2.239999958789,-5 4.999999958789,-5 2.76,0 5,2.24 5,5 0,2.76 -2.24,5 -5,5 -2.76,0 -4.999999958789,-2.24 -4.999999958789,-5 z"
       copytype="single_stretched"
       prop_scale="1"
       scale_y_rel="false"
       spacing="0"
       normal_offset="0"
       tang_offset="0"
       prop_units="false"
       vertical_pattern="false"
       fuse_tolerance="0" />
    <inkscape:path-effect
       effect="skeletal"
       id="path-effect4715"
       is_visible="true"
       pattern="m -1.5258789e-5,557.36201 c 0,-2.76 2.239999958789,-5 4.999999958789,-5 2.76,0 5,2.24 5,5 0,2.76 -2.24,5 -5,5 -2.76,0 -4.999999958789,-2.24 -4.999999958789,-5 z"
       copytype="single_stretched"
       prop_scale="1"
       scale_y_rel="false"
       spacing="0"
       normal_offset="0"
       tang_offset="0"
       prop_units="false"
       vertical_pattern="false"
       fuse_tolerance="0" />
    <inkscape:path-effect
       effect="skeletal"
       id="path-effect4711"
       is_visible="true"
       pattern="m -1.5258789e-5,557.36201 c 0,-2.76 2.239999958789,-5 4.999999958789,-5 2.76,0 5,2.24 5,5 0,2.76 -2.24,5 -5,5 -2.76,0 -4.999999958789,-2.24 -4.999999958789,-5 z"
       copytype="single_stretched"
       prop_scale="1"
       scale_y_rel="false"
       spacing="0"
       normal_offset="0"
       tang_offset="0"
       prop_units="false"
       vertical_pattern="false"
       fuse_tolerance="0" />
  </defs>
  <sodipodi:namedview
     id="base"
     pagecolor="#ffffff"
     bordercolor="#666666"
     borderopacity="1.0"
     inkscape:pageopacity="0.0"
     inkscape:pageshadow="2"
     inkscape:zoom="0.5"
     inkscape:cx="316.88171"
     inkscape:cy="367.70756"
     inkscape:document-units="px"
     inkscape:current-layer="g4702"
     showgrid="false"
     inkscape:window-width="1680"
     inkscape:window-height="987"
     inkscape:window-x="-8"
     inkscape:window-y="-8"
     inkscape:window-maximized="1"
     units="px"
     width="500mm" />
  <metadata
     id="metadata7">
    <rdf:RDF>
      <cc:Work
         rdf:about="">
        <dc:format>image/svg+xml</dc:format>
        <dc:type
           rdf:resource="http://purl.org/dc/dcmitype/StillImage" />
        <dc:title />
      </cc:Work>
    </rdf:RDF>
  </metadata>
  <g
     inkscape:label="Calque 1"
     inkscape:groupmode="layer"
     id="layer1"
     transform="translate(0,-552.36201)">
    <g
       id="g4702">
      <rect
         inkscape:export-ydpi="25.714285"
         inkscape:export-xdpi="25.714285"
         y="559.50488"
         x="7.1428413"
         height="485.71429"
         width="485.71429"
         id="rect4147"
         style="opacity:0.25500039;fill:#cccccc;fill-opacity:1;stroke:#000000;stroke-width:14.2857132;stroke-miterlimit:4;stroke-dasharray:none;stroke-opacity:1" />
      <path
         style="fill:#d40000"
         d="m 243.55273,609.73242 c -67.65949,0.88829 -133.01494,40.36656 -165.619136,99.60156 -31.821355,56.38662 -32.312633,128.71166 -1.701172,185.70118 27.948338,53.99686 82.696318,92.93607 142.896488,101.51367 30.76035,4.51557 62.59644,1.60065 92.21957,-7.67923 7.96149,-3.27286 17.15132,-5.67136 23.15738,-12.09812 9.70062,-12.63563 1.13403,-35.32034 -15.63281,-35.59765 -15.05063,-0.39496 -28.03601,9.27971 -42.96536,9.9486 -46.38402,8.42454 -97.13705,-5.02369 -130.88145,-38.74217 -34.04326,-32.15743 -51.560224,-81.1273 -45.282099,-127.55018 5.349319,-46.13608 34.437089,-88.49343 75.177329,-111.08797 46.32221,-26.27333 106.78142,-25.62043 152.16056,3.06062 51.05878,31.06217 81.34751,95.306 67.86962,154.13428 -5.06889,24.52449 -16.18851,47.00446 -27.14696,69.33838 -4.38719,16.95366 16.89276,33.76929 32.10547,24.28516 13.07979,-7.67872 16.43065,-23.71901 23.45922,-36.05449 22.9543,-50.45285 27.47222,-111.15289 3.65922,-162.16376 -28.2958,-64.64093 -93.53199,-112.32285 -164.43876,-116.2173 -6.33643,-0.42786 -12.6892,-0.44497 -19.03711,-0.39258 z m -46.52734,118.05469 c -18.29214,-0.49667 -28.53367,26.26624 -14.67383,38.16016 11.77828,12.51775 25.21817,24.52019 36.13282,37.14062 -15.92995,16.80468 -34.9568,31.30186 -47.35157,51.08594 -5.64857,16.75802 15.14604,35.22037 30.875,26.21875 16.30262,-10.54629 27.55778,-26.88153 42.09375,-39.38086 2.39843,-1.26223 5.10278,-8.20482 7.81932,-5.48139 16.21188,15.54463 30.33457,33.97462 49.61818,45.87787 16.66489,5.68491 35.33677,-14.84969 26.35938,-30.62304 C 318.87562,835.92604 303.98731,826.08105 292.83203,813 c -3.55678,-3.57895 -7.22247,-7.14257 -10.67383,-10.77344 14.24883,-14.97421 31.64961,-27.72892 41.94532,-45.96875 5.1979,-16.53156 -15.06366,-34.67268 -30.61719,-25.77148 -12.92735,7.20446 -20.91479,20.28909 -32.18646,29.53439 -3.65531,3.51503 -7.23557,7.65883 -11.02253,10.74295 -15.41221,-14.4551 -28.22833,-32.92289 -47.48632,-42.54297 -1.89611,-0.37366 -3.83599,-0.49241 -5.76563,-0.43359 z"
         id="path4153"
         inkscape:connector-curvature="0" />
    </g>
  </g>
</svg>
