<?xml version="1.0" encoding="UTF-8" standalone="no"?>
<!-- Created with Inkscape (http://www.inkscape.org/) -->

<svg
   xmlns:dc="http://purl.org/dc/elements/1.1/"
   xmlns:cc="http://creativecommons.org/ns#"
   xmlns:rdf="http://www.w3.org/1999/02/22-rdf-syntax-ns#"
   xmlns:svg="http://www.w3.org/2000/svg"
   xmlns="http://www.w3.org/2000/svg"
   xmlns:sodipodi="http://sodipodi.sourceforge.net/DTD/sodipodi-0.dtd"
   xmlns:inkscape="http://www.inkscape.org/namespaces/inkscape"
   width="500"
   height="500"
   viewBox="0 0 499.99998 499.99999"
   id="svg2"
   version="1.1"
   inkscape:version="0.91 r13725"
   sodipodi:docname="difference.svg">
  <defs
     id="defs4" />
  <sodipodi:namedview
     id="base"
     pagecolor="#ffffff"
     bordercolor="#666666"
     borderopacity="1.0"
     inkscape:pageopacity="0.0"
     inkscape:pageshadow="2"
     inkscape:zoom="0.64"
     inkscape:cx="261.87542"
     inkscape:cy="381.19558"
     inkscape:document-units="px"
     inkscape:current-layer="layer1"
     showgrid="false"
     inkscape:window-width="1680"
     inkscape:window-height="987"
     inkscape:window-x="-8"
     inkscape:window-y="-8"
     inkscape:window-maximized="1"
     units="px"
     width="500mm" />
  <metadata
     id="metadata7">
    <rdf:RDF>
      <cc:Work
         rdf:about="">
        <dc:format>image/svg+xml</dc:format>
        <dc:type
           rdf:resource="http://purl.org/dc/dcmitype/StillImage" />
        <dc:title></dc:title>
      </cc:Work>
    </rdf:RDF>
  </metadata>
  <g
     inkscape:label="Calque 1"
     inkscape:groupmode="layer"
     id="layer1"
     transform="translate(0,-552.36201)">
    <rect
       style="opacity:0.25500039;fill:#cccccc;fill-opacity:1;stroke:#000000;stroke-width:14.2857132;stroke-miterlimit:4;stroke-dasharray:none;stroke-opacity:1"
       id="rect4147"
       width="485.71429"
       height="485.71429"
       x="7.1428566"
       y="559.50488"
       inkscape:export-xdpi="25.714285"
       inkscape:export-ydpi="25.714285" />
    <path
       style="fill:#aa0000;fill-opacity:1;fill-rule:evenodd;stroke:#000000;stroke-width:1px;stroke-linecap:butt;stroke-linejoin:miter;stroke-opacity:1"
       d="m 252.71852,718.57003 50.78125,-27.73437 55.07812,1.17187 30.46875,10.54688 20.3125,14.0625 18.35937,19.53125 c 0,0 9.375,10.54687 9.76563,12.89062 0.39062,2.34375 8.98437,20.3125 8.98437,22.26563 0,1.95312 5.85937,25.78125 5.85937,25.78125 l -2.34375,33.59375 -11.32812,30.85937 -23.4375,34.375 -44.53125,25 -48.82811,5.46875 -51.56251,-16.01562 -16.79687,-17.96875 13.67187,-7.8125 21.09375,-44.92188 -0.23695,-54.59272 -24.76305,-57.12603 z"
       id="path4215-8"
       inkscape:connector-curvature="0"
       sodipodi:nodetypes="ccccccssccccccccccccc" />
    <path
       style="fill:#aa0000;fill-rule:evenodd;stroke:#000000;stroke-width:1px;stroke-linecap:butt;stroke-linejoin:miter;stroke-opacity:1;fill-opacity:1"
       d="m 251.95311,717.59638 -50.78125,-27.73437 -55.07813,1.17187 -30.46875,10.54688 -20.312495,14.0625 -18.359375,19.53125 c 0,0 -9.375,10.54687 -9.765625,12.89062 -0.390625,2.34375 -8.984375,20.3125 -8.984375,22.26563 0,1.95312 -5.859375,25.78125 -5.859375,25.78125 l 2.34375,33.59375 11.328125,30.85937 23.4375,34.375 44.53125,25 48.82812,5.46875 51.56251,-16.01562 16.79687,-17.96875 -13.67187,-7.8125 -21.09375,-44.92188 -3.90625,-56.25 28.90625,-55.46875 z"
       id="path4215"
       inkscape:connector-curvature="0" />
    <circle
       style="opacity:1;fill:none;fill-opacity:1;stroke:#000000;stroke-width:7.875;stroke-miterlimit:4;stroke-dasharray:none;stroke-opacity:1"
       id="path4146"
       cx="171.31073"
       cy="807.12231"
       r="118.55617" />
    <circle
       style="opacity:1;fill:none;fill-opacity:1;stroke:#000000;stroke-width:7.875;stroke-miterlimit:4;stroke-dasharray:none;stroke-opacity:1"
       id="path4146-2"
       cx="331.18356"
       cy="807.79279"
       r="118.55617" />
  </g>
</svg>
