<?xml version="1.0" encoding="UTF-8" standalone="no"?>
<!-- Created with Inkscape (http://www.inkscape.org/) -->

<svg
   xmlns:dc="http://purl.org/dc/elements/1.1/"
   xmlns:cc="http://creativecommons.org/ns#"
   xmlns:rdf="http://www.w3.org/1999/02/22-rdf-syntax-ns#"
   xmlns:svg="http://www.w3.org/2000/svg"
   xmlns="http://www.w3.org/2000/svg"
   xmlns:sodipodi="http://sodipodi.sourceforge.net/DTD/sodipodi-0.dtd"
   xmlns:inkscape="http://www.inkscape.org/namespaces/inkscape"
   width="500"
   height="500"
   viewBox="0 0 499.99998 499.99999"
   id="svg2"
   version="1.1"
   inkscape:version="0.91 r13725"
   sodipodi:docname="favorite.svg">
  <defs
     id="defs4" />
  <sodipodi:namedview
     id="base"
     pagecolor="#ffffff"
     bordercolor="#666666"
     borderopacity="1.0"
     inkscape:pageopacity="0.0"
     inkscape:pageshadow="2"
     inkscape:zoom="0.90509668"
     inkscape:cx="442.15382"
     inkscape:cy="316.78076"
     inkscape:document-units="px"
     inkscape:current-layer="layer1"
     showgrid="false"
     inkscape:window-width="1680"
     inkscape:window-height="987"
     inkscape:window-x="-8"
     inkscape:window-y="-8"
     inkscape:window-maximized="1"
     units="px"
     width="500mm" />
  <metadata
     id="metadata7">
    <rdf:RDF>
      <cc:Work
         rdf:about="">
        <dc:format>image/svg+xml</dc:format>
        <dc:type
           rdf:resource="http://purl.org/dc/dcmitype/StillImage" />
        <dc:title />
      </cc:Work>
    </rdf:RDF>
  </metadata>
  <g
     inkscape:label="Calque 1"
     inkscape:groupmode="layer"
     id="layer1"
     transform="translate(0,-552.36201)">
    <rect
       style="opacity:0.25500039;fill:#cccccc;fill-opacity:1;stroke:#000000;stroke-width:14.2857132;stroke-miterlimit:4;stroke-dasharray:none;stroke-opacity:1"
       id="rect4147"
       width="485.71429"
       height="485.71429"
       x="7.1428566"
       y="559.50488"
       inkscape:export-xdpi="25.714285"
       inkscape:export-ydpi="25.714285" />
    <path
       style="fill:#000000"
       d="m 121.29684,992.49176 c 0.28183,-0.948 7.51011,-32.0952 16.06284,-69.21596 L 152.9101,855.78349 105.1999,808.06551 C 78.959284,781.82063 57.714794,760.12245 57.989914,759.84733 c 0.27511,-0.27512 27.70549,-5.02316 60.956376,-10.5512 33.25089,-5.52805 61.71427,-10.3111 63.25196,-10.62902 2.57294,-0.53195 5.3226,-5.6324 34.49633,-63.98851 17.4353,-34.87577 31.92884,-63.41049 32.20788,-63.41049 0.27904,0 14.77258,28.53472 32.20788,63.41049 29.17373,58.35611 31.92339,63.45656 34.49633,63.98851 1.53769,0.31792 30.00107,5.10097 63.25196,10.62902 33.25089,5.52804 60.68126,10.27608 60.95638,10.5512 0.27512,0.27512 -20.96936,21.97328 -47.20995,48.21815 l -47.71017,47.71793 15.92796,68.98485 c 8.76037,37.9417 15.84958,69.0454 15.75378,69.1194 -0.0958,0.074 -28.07417,-11.5167 -62.17417,-25.7572 -34.1,-14.24038 -62.94042,-26.14074 -64.08982,-26.4452 -1.37574,-0.36441 -22.73158,8.04568 -62.5,24.613 -33.2256,13.8416 -61.89924,25.7854 -63.7192,26.5418 -3.02414,1.2569 -3.2649,1.2269 -2.7966,-0.3483 z m 78.60562,-54.22365 c 26.39522,-11 48.44522,-20 49,-20 0.55478,0 22.65909,9.02264 49.12071,20.0503 26.46161,11.02767 48.22567,19.91515 48.36458,19.74995 0.1389,-0.1651 -5.39696,-24.7395 -12.30193,-54.6097 l -12.55449,-54.30946 37.39141,-37.40137 c 20.56527,-20.57076 37.18627,-37.59897 36.93556,-37.84047 -0.25071,-0.2415 -21.60584,-3.88578 -47.45584,-8.0984 -25.85,-4.21263 -47.67617,-7.85265 -48.5026,-8.08895 -0.82643,-0.2363 -12.52276,-22.48464 -25.99184,-49.44077 -13.46908,-26.95612 -24.72158,-49.01113 -25.00556,-49.01113 -0.28398,0 -11.53648,22.05501 -25.00556,49.01113 -13.46908,26.95613 -25.16541,49.20464 -25.99184,49.44115 -0.82643,0.2365 -22.6526,3.88902 -48.5026,8.11672 -25.85,4.22769 -47.20513,7.8718 -47.45584,8.09803 -0.25071,0.22622 16.37397,17.24561 36.94373,37.82086 l 37.39957,37.40955 -12.32573,53.30128 c -6.77916,29.3157 -12.53948,53.86373 -12.80072,54.55123 -0.26124,0.6875 -0.19989,1.25 0.13634,1.25 0.33624,0 22.20743,-8.99995 48.60265,-19.99995 z"
       id="path4148"
       inkscape:connector-curvature="0" />
  </g>
</svg>
