<?xml version="1.0" encoding="UTF-8" standalone="no"?>
<!-- Created with Inkscape (http://www.inkscape.org/) -->

<svg
   xmlns:dc="http://purl.org/dc/elements/1.1/"
   xmlns:cc="http://creativecommons.org/ns#"
   xmlns:rdf="http://www.w3.org/1999/02/22-rdf-syntax-ns#"
   xmlns:svg="http://www.w3.org/2000/svg"
   xmlns="http://www.w3.org/2000/svg"
   xmlns:sodipodi="http://sodipodi.sourceforge.net/DTD/sodipodi-0.dtd"
   xmlns:inkscape="http://www.inkscape.org/namespaces/inkscape"
   width="500"
   height="500"
   viewBox="0 0 499.99998 499.99999"
   id="svg2"
   version="1.1"
   inkscape:version="0.91 r13725"
   sodipodi:docname="save_selection.svg">
  <defs
     id="defs4">
    <inkscape:path-effect
       effect="skeletal"
       id="path-effect4727"
       is_visible="true"
       pattern="m -1.5258789e-5,557.36201 c 0,-2.76 2.239999958789,-5 4.999999958789,-5 2.76,0 5,2.24 5,5 0,2.76 -2.24,5 -5,5 -2.76,0 -4.999999958789,-2.24 -4.999999958789,-5 z"
       copytype="single_stretched"
       prop_scale="1"
       scale_y_rel="false"
       spacing="0"
       normal_offset="0"
       tang_offset="0"
       prop_units="false"
       vertical_pattern="false"
       fuse_tolerance="0" />
    <inkscape:path-effect
       effect="skeletal"
       id="path-effect4723"
       is_visible="true"
       pattern="m -1.5258789e-5,557.36201 c 0,-2.76 2.239999958789,-5 4.999999958789,-5 2.76,0 5,2.24 5,5 0,2.76 -2.24,5 -5,5 -2.76,0 -4.999999958789,-2.24 -4.999999958789,-5 z"
       copytype="single_stretched"
       prop_scale="1"
       scale_y_rel="false"
       spacing="0"
       normal_offset="0"
       tang_offset="0"
       prop_units="false"
       vertical_pattern="false"
       fuse_tolerance="0" />
    <inkscape:path-effect
       effect="skeletal"
       id="path-effect4719"
       is_visible="true"
       pattern="m -1.5258789e-5,557.36201 c 0,-2.76 2.239999958789,-5 4.999999958789,-5 2.76,0 5,2.24 5,5 0,2.76 -2.24,5 -5,5 -2.76,0 -4.999999958789,-2.24 -4.999999958789,-5 z"
       copytype="single_stretched"
       prop_scale="1"
       scale_y_rel="false"
       spacing="0"
       normal_offset="0"
       tang_offset="0"
       prop_units="false"
       vertical_pattern="false"
       fuse_tolerance="0" />
    <inkscape:path-effect
       effect="skeletal"
       id="path-effect4715"
       is_visible="true"
       pattern="m -1.5258789e-5,557.36201 c 0,-2.76 2.239999958789,-5 4.999999958789,-5 2.76,0 5,2.24 5,5 0,2.76 -2.24,5 -5,5 -2.76,0 -4.999999958789,-2.24 -4.999999958789,-5 z"
       copytype="single_stretched"
       prop_scale="1"
       scale_y_rel="false"
       spacing="0"
       normal_offset="0"
       tang_offset="0"
       prop_units="false"
       vertical_pattern="false"
       fuse_tolerance="0" />
    <inkscape:path-effect
       effect="skeletal"
       id="path-effect4711"
       is_visible="true"
       pattern="m -1.5258789e-5,557.36201 c 0,-2.76 2.239999958789,-5 4.999999958789,-5 2.76,0 5,2.24 5,5 0,2.76 -2.24,5 -5,5 -2.76,0 -4.999999958789,-2.24 -4.999999958789,-5 z"
       copytype="single_stretched"
       prop_scale="1"
       scale_y_rel="false"
       spacing="0"
       normal_offset="0"
       tang_offset="0"
       prop_units="false"
       vertical_pattern="false"
       fuse_tolerance="0" />
  </defs>
  <sodipodi:namedview
     id="base"
     pagecolor="#ffffff"
     bordercolor="#666666"
     borderopacity="1.0"
     inkscape:pageopacity="0.0"
     inkscape:pageshadow="2"
     inkscape:zoom="0.25"
     inkscape:cx="473.93097"
     inkscape:cy="879.73729"
     inkscape:document-units="px"
     inkscape:current-layer="g4702"
     showgrid="false"
     inkscape:window-width="1680"
     inkscape:window-height="987"
     inkscape:window-x="-8"
     inkscape:window-y="-8"
     inkscape:window-maximized="1"
     units="px"
     width="500mm" />
  <metadata
     id="metadata7">
    <rdf:RDF>
      <cc:Work
         rdf:about="">
        <dc:format>image/svg+xml</dc:format>
        <dc:type
           rdf:resource="http://purl.org/dc/dcmitype/StillImage" />
        <dc:title />
      </cc:Work>
    </rdf:RDF>
  </metadata>
  <g
     inkscape:label="Calque 1"
     inkscape:groupmode="layer"
     id="layer1"
     transform="translate(0,-552.36201)">
    <g
       id="g4702">
      <rect
         inkscape:export-ydpi="25.714285"
         inkscape:export-xdpi="25.714285"
         y="559.50488"
         x="7.1428413"
         height="485.71429"
         width="485.71429"
         id="rect4147"
         style="opacity:0.25500039;fill:#cccccc;fill-opacity:1;stroke:#000000;stroke-width:14.2857132;stroke-miterlimit:4;stroke-dasharray:none;stroke-opacity:1" />
      <path
         style="fill:#2ca02c;fill-opacity:1"
         d="m 95.132812,635.65234 c -8.139073,3.77928 -15.54659,11.93327 -13.663885,21.49805 0.0021,101.09505 0.0055,202.1901 0.0096,303.28516 3.992348,7.98595 11.811303,15.86933 21.490234,13.93182 97.01936,-0.25667 194.04845,0.58819 291.06156,-0.59847 6.27068,0.19448 13.347,-0.25515 17.19821,-6.06773 7.19317,-7.64344 3.90142,-18.84442 4.87205,-28.22618 0.56563,-90.30042 -0.0766,-180.6034 -0.13377,-270.90468 -11.04723,-11.0654 -22.09568,-22.12958 -33.14453,-33.19336 -95.74024,0 -191.48047,0 -287.220708,0 l -0.46875,0.27539 z m 227.095708,63.45704 c -0.0827,15.25846 -0.16537,30.51692 -0.24805,45.77539 -48.17735,-0.18419 -96.38559,1.08861 -144.54492,-0.24024 -2.84009,-0.84675 -0.84881,-6.13721 -1.63156,-8.68725 -0.39076,-27.36048 0.0954,-54.72462 0.15304,-82.08619 48.83984,-0.16697 97.67969,-0.33299 146.51953,-0.49804 -0.0827,15.24544 -0.16536,30.49088 -0.24804,45.73633 z M 128.67188,653.37695 c 8.93229,0 17.86458,0 26.79687,0 0.40467,31.80651 -0.88251,63.69767 1.04883,95.45508 2.55648,8.37089 10.33895,16.1926 19.72461,14.99024 47.25834,0.87471 94.54647,0.68885 141.80859,0.14062 8.42382,0.59581 18.15321,-2.54725 21.32617,-11.14648 3.1756,-9.39836 1.3484,-19.7313 2.03904,-29.48046 0.0968,-23.31953 0.0351,-46.63935 0.0528,-69.959 10.56641,0 21.13281,0 31.69922,0 7.7659,7.78619 15.53283,15.57134 23.30078,23.35547 0,92.68034 0,185.36068 0,278.04102 -9.11011,1.03027 -18.35776,0.12658 -27.51367,0.14453 -0.64226,-47.54572 0.0468,-95.12463 -1.48638,-142.65013 -0.16702,-6.50588 -1.09913,-14.60679 -8.12104,-17.32643 -6.32678,-5.73161 -15.49773,-2.01165 -23.23243,-3.06446 -64.29817,0 -128.59635,0 -192.89453,0 -5.08887,3.16255 -11.82144,6.39625 -12.00536,13.34355 -2.56858,27.27548 -1.08701,54.779 -1.78626,82.14265 -0.14889,22.51632 -0.29777,45.03264 -0.44666,67.54896 -9.48043,-0.0651 -19.02198,0.85536 -28.47265,-0.12109 -1.728825,-76.86756 -1.055564,-153.89902 -0.976705,-230.82988 0.218104,-23.28354 0.07695,-46.64989 0.947405,-69.8752 9.33635,-0.93685 18.77635,-0.57322 28.19141,-0.70899 z m 141.18554,10.00782 c -8.86211,-0.0588 -19.66066,-0.48157 -25.40039,7.71093 -5.82243,8.19385 -3.20026,19.12957 -3.9668,28.50586 0.71698,10.56108 -2.43967,24.02829 7.05274,31.70899 7.98692,7.13896 19.52121,4.13399 29.23437,4.98047 9.14105,-0.0276 21.09529,0.0126 25.71289,-9.60547 4.92536,-9.05608 2.13585,-19.98168 2.97262,-29.80468 -0.5766,-9.69401 1.89142,-22.29212 -7.16988,-28.97462 -7.70764,-6.53355 -19.24582,-3.79406 -28.43555,-4.52148 z m 3.11133,19.49218 c 4.82862,1.19943 15.52738,-3.56214 13.1061,4.99941 -0.0746,9.56901 0.79748,19.21127 -0.28579,28.68419 -8.35089,1.07512 -17.4514,1.71205 -25.67773,-0.34766 -1.23304,-11.03354 0.008,-22.24149 -0.17188,-33.33594 4.3431,0 8.6862,0 13.0293,0 z m -24,129 c 33.33594,0 66.67188,0 100.00781,0 0.16534,47.83334 0.3307,95.66667 0.4961,143.5 -67.00326,0 -134.00651,0 -201.00977,0 0.16503,-47.83333 0.33104,-95.66667 0.49805,-143.5 33.33594,0 66.67187,0 100.00781,0 z"
         id="path4153"
         inkscape:connector-curvature="0" />
    </g>
  </g>
</svg>
