<?xml version="1.0" encoding="UTF-8" standalone="no"?>
<!-- Created with Inkscape (http://www.inkscape.org/) -->

<svg
   xmlns:dc="http://purl.org/dc/elements/1.1/"
   xmlns:cc="http://creativecommons.org/ns#"
   xmlns:rdf="http://www.w3.org/1999/02/22-rdf-syntax-ns#"
   xmlns:svg="http://www.w3.org/2000/svg"
   xmlns="http://www.w3.org/2000/svg"
   xmlns:sodipodi="http://sodipodi.sourceforge.net/DTD/sodipodi-0.dtd"
   xmlns:inkscape="http://www.inkscape.org/namespaces/inkscape"
   width="150"
   height="50"
   viewBox="0 0 39.687498 13.229167"
   version="1.1"
   id="svg4524"
   inkscape:version="0.92.4 (5da689c313, 2019-01-14)"
   sodipodi:docname="save_log.svg">
  <defs
     id="defs4518" />
  <sodipodi:namedview
     id="base"
     pagecolor="#ffffff"
     bordercolor="#666666"
     borderopacity="1.0"
     inkscape:pageopacity="0.0"
     inkscape:pageshadow="2"
     inkscape:zoom="5.6"
     inkscape:cx="51.81555"
     inkscape:cy="22.166155"
     inkscape:document-units="mm"
     inkscape:current-layer="layer1"
     showgrid="false"
     units="px"
     inkscape:window-width="2736"
     inkscape:window-height="1699"
     inkscape:window-x="-13"
     inkscape:window-y="-13"
     inkscape:window-maximized="1" />
  <metadata
     id="metadata4521">
    <rdf:RDF>
      <cc:Work
         rdf:about="">
        <dc:format>image/svg+xml</dc:format>
        <dc:type
           rdf:resource="http://purl.org/dc/dcmitype/StillImage" />
        <dc:title></dc:title>
      </cc:Work>
    </rdf:RDF>
  </metadata>
  <g
     inkscape:label="Calque 1"
     inkscape:groupmode="layer"
     id="layer1"
     transform="translate(0,-283.77081)">
    <g
       id="g5092">
      <rect
         y="283.77084"
         x="0"
         height="13.229167"
         width="39.6875"
         id="rect5069"
         style="opacity:0.52100004;fill:#dcdcdc;fill-opacity:1;stroke:none;stroke-width:4.47052956;stroke-miterlimit:4;stroke-dasharray:none;stroke-opacity:1" />
      <text
         transform="scale(0.92980182,1.075498)"
         id="text5073"
         y="271.56863"
         x="1.7004224"
         style="font-style:normal;font-weight:normal;font-size:6.5315032px;line-height:1.25;font-family:sans-serif;letter-spacing:0px;word-spacing:0px;fill:#000000;fill-opacity:1;stroke:none;stroke-width:0.16328758"
         xml:space="preserve"><tspan
           style="stroke-width:0.16328758"
           y="271.56863"
           x="1.7004224"
           id="tspan5071"
           sodipodi:role="line">Save log</tspan></text>
      <path
         inkscape:connector-curvature="0"
         id="path5086"
         d="m 30.342103,294.36666 c -0.07644,-0.008 -0.156897,-0.0229 -0.178706,-0.0345 -0.02181,-0.0106 -0.07495,-0.0273 -0.118149,-0.0352 -0.04319,-0.008 -0.100151,-0.0313 -0.12683,-0.0523 -0.02668,-0.0212 -0.05929,-0.0381 -0.07263,-0.0381 -0.02117,0 -0.11582,-0.0976 -0.25601,-0.26101 -0.01482,-0.0169 -0.03451,-0.0627 -0.04214,-0.0993 -0.0085,-0.0366 -0.03091,-0.0944 -0.05166,-0.12852 -0.03642,-0.0601 -0.03748,-0.16283 -0.03748,-3.52404 0,-3.32801 0.0014,-3.46483 0.03663,-3.53134 0.02117,-0.0381 0.04256,-0.0934 0.04976,-0.12302 0.03917,-0.1605 0.291624,-0.40833 0.4503,-0.44211 0.03769,-0.008 0.08533,-0.0292 0.105445,-0.0472 0.03367,-0.0299 0.298845,-0.033 3.15498,-0.0377 l 3.11816,-0.004 0.07199,0.05 c 0.03959,0.0275 0.07792,0.05 0.08491,0.05 0.01694,0 1.186064,1.17203 1.186064,1.18948 0,0.008 0.02223,0.044 0.04955,0.0811 l 0.04955,0.0673 v 3.08841 c 0,2.96317 -0.0015,3.09121 -0.03663,3.15759 -0.02117,0.0381 -0.04214,0.0972 -0.0487,0.13149 -0.0064,0.0343 -0.03367,0.094 -0.06013,0.13297 -0.05802,0.0855 -0.221286,0.25139 -0.247393,0.25139 -0.01059,0 -0.04044,0.0169 -0.06712,0.0381 -0.02668,0.0212 -0.08364,0.0447 -0.12683,0.0527 -0.04319,0.008 -0.10968,0.029 -0.147793,0.0464 -0.06267,0.0286 -0.393089,0.0318 -3.335147,0.0341 -1.796119,0.001 -3.328203,-0.004 -3.404618,-0.0106 z m 5.806727,-0.94358 c 0.02731,-0.0148 0.0686,-0.0373 0.09168,-0.0479 0.04701,-0.0216 0.126619,-0.11497 0.12683,-0.14885 6.4e-5,-0.0127 0.01482,-0.0489 0.03472,-0.0817 0.03176,-0.0546 0.03515,-0.16049 0.04023,-1.26038 0.0064,-1.17609 0.0016,-1.26907 -0.05929,-1.43225 -0.03451,-0.0925 -0.06077,-0.12323 -0.172565,-0.20136 l -0.09147,-0.064 h -2.48439 c -2.338228,0 -2.486655,0.002 -2.522777,0.0347 -0.02117,0.019 -0.04828,0.0347 -0.06013,0.0347 -0.0343,0 -0.14377,0.0997 -0.14377,0.13086 0,0.0148 -0.01694,0.0614 -0.03981,0.10205 -0.03854,0.0718 -0.03981,0.11201 -0.03981,1.32535 0,1.21335 0.0012,1.25352 0.03981,1.32536 0.02181,0.0407 0.03981,0.0858 0.03981,0.10015 0,0.0277 0.08893,0.11773 0.1389,0.1406 0.01694,0.008 0.05209,0.0265 0.0794,0.0423 0.07453,0.0432 4.947818,0.0432 5.022582,7e-5 z m -2.549075,-0.70034 c -1.483956,-0.004 -2.070191,-0.0106 -2.089438,-0.0273 -0.04383,-0.0362 -0.03134,-0.0959 0.02414,-0.11709 0.0722,-0.0273 4.14739,-0.0263 4.198715,10e-4 0.0578,0.0309 0.05018,0.11497 -0.0127,0.13869 -0.02795,0.0106 -0.05251,0.0169 -0.05463,0.0148 -0.002,-0.002 -0.931895,-0.006 -2.06638,-0.0106 z m -2.061552,-0.79287 c -0.03642,-0.0106 -0.06945,-0.0974 -0.04552,-0.12133 0.01694,-0.0169 4.168162,-0.0303 4.234181,-0.0148 0.03345,0.008 0.04468,0.0252 0.04468,0.0678 0,0.0421 -0.01059,0.0599 -0.04468,0.0688 -0.05124,0.0127 -4.136083,0.0127 -4.188763,-10e-4 z m -0.01906,-0.7941 c -0.0559,-0.0148 -0.04446,-0.10269 0.01694,-0.12577 0.05548,-0.0212 4.114593,-0.0277 4.192448,-0.006 0.05378,0.0148 0.06373,0.11497 0.0127,0.13424 -0.03599,0.0148 -4.168987,0.0127 -4.221921,-0.002 z m 3.897096,-2.3792 c 0.03896,-0.0286 0.07284,-0.0735 0.07855,-0.10417 0.0064,-0.0297 0.0085,-0.51241 0.0085,-1.07281 -0.0021,-1.12908 0.0085,-1.04437 -0.142499,-1.10236 -0.07623,-0.0294 -0.250061,-0.0326 -1.721757,-0.0326 -1.471718,0 -1.645553,0.004 -1.721779,0.0326 -0.155202,0.0597 -0.143557,-0.0212 -0.150544,1.05493 -0.0042,0.53191 -6.57e-4,1.01295 0.0064,1.06895 0.01059,0.0885 0.02181,0.10884 0.08533,0.15394 l 0.07305,0.0519 h 1.708629 1.708609 z m -1.194851,-0.46537 -0.05907,-0.0591 0.0064,-0.60497 c 0.0042,-0.46292 0.0127,-0.61103 0.03176,-0.63077 0.01906,-0.019 0.119843,-0.0277 0.359783,-0.0324 l 0.333993,-0.006 0.06204,0.0661 0.06204,0.0661 1.06e-4,0.5477 8.5e-5,0.5477 -0.05463,0.0711 c -0.03007,0.0392 -0.07241,0.0762 -0.09422,0.0824 -0.02181,0.006 -0.163249,0.0106 -0.314196,0.0106 l -0.274495,3e-4 z"
         style="fill:#000000;stroke-width:0.0198521" />
    </g>
  </g>
</svg>
