<?xml version="1.0" encoding="UTF-8" standalone="no"?>
<!-- Created with Inkscape (http://www.inkscape.org/) -->

<svg
   xmlns:dc="http://purl.org/dc/elements/1.1/"
   xmlns:cc="http://creativecommons.org/ns#"
   xmlns:rdf="http://www.w3.org/1999/02/22-rdf-syntax-ns#"
   xmlns:svg="http://www.w3.org/2000/svg"
   xmlns="http://www.w3.org/2000/svg"
   xmlns:sodipodi="http://sodipodi.sourceforge.net/DTD/sodipodi-0.dtd"
   xmlns:inkscape="http://www.inkscape.org/namespaces/inkscape"
   width="500"
   height="500"
   viewBox="0 0 499.99998 499.99999"
   id="svg2"
   version="1.1"
   inkscape:version="0.91 r13725"
   sodipodi:docname="sel_zoom.svg">
  <defs
     id="defs4" />
  <sodipodi:namedview
     id="base"
     pagecolor="#ffffff"
     bordercolor="#666666"
     borderopacity="1.0"
     inkscape:pageopacity="0.0"
     inkscape:pageshadow="2"
     inkscape:zoom="0.35355339"
     inkscape:cx="-93.761791"
     inkscape:cy="921.56604"
     inkscape:document-units="px"
     inkscape:current-layer="layer1"
     showgrid="false"
     inkscape:window-width="1680"
     inkscape:window-height="987"
     inkscape:window-x="-8"
     inkscape:window-y="-8"
     inkscape:window-maximized="1"
     units="px"
     width="500mm" />
  <metadata
     id="metadata7">
    <rdf:RDF>
      <cc:Work
         rdf:about="">
        <dc:format>image/svg+xml</dc:format>
        <dc:type
           rdf:resource="http://purl.org/dc/dcmitype/StillImage" />
        <dc:title />
      </cc:Work>
    </rdf:RDF>
  </metadata>
  <g
     inkscape:label="Calque 1"
     inkscape:groupmode="layer"
     id="layer1"
     transform="translate(0,-552.36201)">
    <path
       style="fill:#000000"
       d="m 90.99138,981.8735 c -12.630551,-4.39467 -20.07563,-18.50117 -16.622704,-31.49569 1.591637,-5.98987 5.989204,-11.15505 30.570654,-35.9069 26.20468,-26.38635 32.78429,-31.86712 32.78429,-27.30911 0,2.32308 23.53133,26.5976 28.80065,29.71028 2.4565,1.45107 4.46637,3.401 4.46637,4.33314 0,0.93214 -13.00978,14.61033 -28.91062,30.39599 -23.34372,23.17461 -30.13076,29.03403 -35.2472,30.42975 -7.514974,2.05003 -9.555304,2.02975 -15.84144,-0.15746 z m 186.13688,-78.85526 c -17.07835,-1.73603 -32.62303,-6.33967 -48.7972,-14.45151 l -15.34463,-7.69582 -10.64475,10.56318 c -10.47062,10.39038 -10.71616,10.52592 -15.00922,8.28523 -5.65559,-2.95181 -27.54904,-24.84526 -30.50085,-30.50085 -2.24069,-4.29307 -2.10515,-4.5386 8.28523,-15.00922 l 10.56318,-10.64475 -7.77029,-15.49313 c -10.48451,-20.90501 -14.70114,-39.05116 -14.61748,-62.90599 0.18948,-54.02179 29.73664,-100.46883 78.68792,-123.69445 20.10328,-9.53829 36.07275,-13.13155 58.61331,-13.1885 65.10048,-0.1645 120.2999,43.95365 134.80001,107.73894 3.76215,16.54951 3.77251,43.18975 0.0233,60.03481 -3.88432,17.45229 -15.78596,41.80582 -27.48323,56.2371 -29.28162,36.12571 -75.11258,55.36967 -120.80528,50.72496 z m 37.22737,-29.33164 c 16.23103,-3.38674 37.64269,-14.53815 50.45285,-26.27635 24.29734,-22.26411 35.83615,-48.49091 35.83615,-81.4528 0,-19.58046 -2.93508,-32.50002 -11.32899,-49.86776 -5.31958,-11.00668 -9.10423,-16.04472 -20.95696,-27.89745 -11.85272,-11.85272 -16.89076,-15.63737 -27.89744,-20.95696 -7.38786,-3.57058 -18.06608,-7.5803 -23.72939,-8.91047 -12.93686,-3.03856 -39.00933,-3.12254 -51.48467,-0.1658 -31.40281,7.44266 -58.4699,29.18055 -73.00325,58.62973 -15.92488,32.26892 -15.83655,66.25115 0.25697,98.85504 5.96679,12.08813 9.75298,17.26541 20.4469,27.95934 21.47011,21.47011 46.71236,32.07853 76.85361,32.29887 7.40587,0.0542 18.45527,-0.94279 24.55422,-2.21539 z m -33.051,-41.41113 c -4.14995,-4.14997 -4.17637,-4.33034 -4.17637,-28.51459 l 0,-24.33821 -24.33821,0 c -24.18425,0 -24.36462,-0.0265 -28.51459,-4.17639 -5.53346,-5.53344 -5.65506,-13.49866 -0.28803,-18.86571 3.79488,-3.79486 4.48042,-3.88834 28.5146,-3.88834 l 24.62623,0 0,-24.62623 c 0,-24.03418 0.0935,-24.71972 3.88836,-28.51458 5.29025,-5.29026 13.86347,-5.29026 19.15372,0 3.79488,3.79486 3.88836,4.4804 3.88836,28.51458 l 0,24.62623 24.62622,0 c 24.03419,0 24.71973,0.0935 28.51459,3.88834 2.6846,2.6846 3.88836,5.64941 3.88836,9.57688 0,3.92747 -1.20376,6.89226 -3.88836,9.57686 -3.79486,3.79488 -4.4804,3.88836 -28.51459,3.88836 l -24.62622,0 0,24.62623 c 0,24.03418 -0.0935,24.71972 -3.88836,28.51458 -5.36703,5.36705 -13.33225,5.24545 -18.86571,-0.28801 z"
       id="path4154"
       inkscape:connector-curvature="0" />
    <path
       style="fill:#000000"
       d=""
       id="path4150"
       inkscape:connector-curvature="0" />
    <path
       style="fill:#000000"
       d=""
       id="path4148"
       inkscape:connector-curvature="0" />
    <rect
       style="opacity:0.25500039;fill:#cccccc;fill-opacity:1;stroke:#000000;stroke-width:14.2857132;stroke-miterlimit:4;stroke-dasharray:none;stroke-opacity:1"
       id="rect4147"
       width="485.71429"
       height="485.71429"
       x="7.1428566"
       y="559.50488"
       inkscape:export-xdpi="25.714285"
       inkscape:export-ydpi="25.714285" />
  </g>
</svg>
