<?xml version="1.0" encoding="UTF-8" standalone="no"?>
<!-- Created with Inkscape (http://www.inkscape.org/) -->

<svg
   xmlns:dc="http://purl.org/dc/elements/1.1/"
   xmlns:cc="http://creativecommons.org/ns#"
   xmlns:rdf="http://www.w3.org/1999/02/22-rdf-syntax-ns#"
   xmlns:svg="http://www.w3.org/2000/svg"
   xmlns="http://www.w3.org/2000/svg"
   xmlns:sodipodi="http://sodipodi.sourceforge.net/DTD/sodipodi-0.dtd"
   xmlns:inkscape="http://www.inkscape.org/namespaces/inkscape"
   width="500"
   height="500"
   viewBox="0 0 499.99998 499.99999"
   id="svg2"
   version="1.1"
   inkscape:version="0.91 r13725"
   sodipodi:docname="dessin.svg">
  <defs
     id="defs4" />
  <sodipodi:namedview
     id="base"
     pagecolor="#ffffff"
     bordercolor="#666666"
     borderopacity="1.0"
     inkscape:pageopacity="0.0"
     inkscape:pageshadow="2"
     inkscape:zoom="0.32"
     inkscape:cx="375.36125"
     inkscape:cy="180.14623"
     inkscape:document-units="px"
     inkscape:current-layer="layer1"
     showgrid="false"
     inkscape:window-width="1680"
     inkscape:window-height="987"
     inkscape:window-x="-8"
     inkscape:window-y="-8"
     inkscape:window-maximized="1"
     units="px"
     width="500mm" />
  <metadata
     id="metadata7">
    <rdf:RDF>
      <cc:Work
         rdf:about="">
        <dc:format>image/svg+xml</dc:format>
        <dc:type
           rdf:resource="http://purl.org/dc/dcmitype/StillImage" />
        <dc:title></dc:title>
      </cc:Work>
    </rdf:RDF>
  </metadata>
  <g
     inkscape:label="Calque 1"
     inkscape:groupmode="layer"
     id="layer1"
     transform="translate(0,-552.36201)">
    <path
       style="fill:#000000"
       d="m 385.07756,1018.3919 c -5.38139,-1.0549 -11.92809,-4.8519 -15.32368,-8.8869 -3.38048,-4.017 -4.99491,-7.275 -18.19968,-36.72309 -6.05773,-13.509 -11.70503,-25.335 -12.54952,-26.28099 -3.04554,-3.41101 -5.68508,-2.06101 -21.10225,10.78699 -17.03699,14.198 -19.98676,15.98601 -26.36811,15.98601 -6.03334,0 -10.55876,-3.05801 -13.5991,-9.18901 l -2.36292,-4.765 -0.78461,-92.99199 c -0.545,-64.595 -0.4675,-94.18799 0.25401,-96.91199 2.85643,-10.78501 11.93474,-15.09001 21.95888,-10.414 4.33174,2.021 140.06107,123.93199 143.71358,129.08199 4.97947,7.022 4.84607,14.086 -0.3834,20.30099 -3.39317,4.033 -9.01006,5.54901 -30.60886,8.26401 -10.41282,1.30899 -19.58684,2.92299 -20.38668,3.58699 -0.79979,0.66001 -1.45426,2.056 -1.45426,3.09401 0,1.038 6.05227,15.24299 13.4495,31.565 l 13.44944,29.67699 0.038,7.86 c 0.033,6.89799 -0.3172,8.50609 -2.86253,13.13609 -5.45536,9.9249 -15.99979,14.956 -26.87742,12.8239 z m 9.75629,-19.49799 c 1.94718,-1.947 2.87189,-3.859 2.87189,-5.93801 0,-1.844 -5.37946,-14.89699 -13.49417,-32.74299 -13.24724,-29.134 -13.49446,-29.80499 -13.50925,-36.632 -0.014,-6.044 0.37489,-7.58499 2.96511,-11.77499 4.82099,-7.79801 9.92974,-9.802 31.40701,-12.32501 9.72663,-1.14299 18.02812,-2.39399 18.44773,-2.78 0.5742,-0.52999 -114.09657,-105.09098 -129.12857,-117.74598 l -2.66266,-2.241 0.4576,81.82299 c 0.25171,45.003 0.6997,85.012 0.99571,88.90799 l 0.53799,7.08501 14.04297,-11.744 c 7.7236,-6.46001 15.97727,-12.62301 18.34146,-13.696 8.98358,-4.07601 20.3167,-1.7 26.25598,5.50599 1.53807,1.86601 6.90819,12.548 11.93359,23.737 16.6124,36.989 18.18397,40.00099 21.80585,41.78509 4.47666,2.2069 5.43583,2.072 8.73177,-1.22409 z M 70.536403,856.35693 l 0,-43.22901 14.737371,0 14.737336,0 0,29.47501 0,29.47399 28.49225,0 28.49221,0 0,13.75499 0,13.75501 -43.22956,0 -43.229607,0 0,-43.22999 z m 115.933867,29.47498 0,-13.75499 33.40469,0 33.4047,0 0,13.75499 0,13.75501 -33.4047,0 -33.40469,0 0,-13.75501 z M 70.536403,759.09092 l 0,-24.56199 14.737371,0 14.737336,0 0,24.56199 0,24.56201 -14.737336,0 -14.737371,0 0,-24.56201 z m 271.167367,0 0,-24.56199 14.73737,0 14.73737,0 0,24.56199 0,24.56201 -14.73737,0 -14.73737,0 0,-24.56201 z m -271.167367,-97.26699 0,-43.22899 43.229607,0 43.22956,0 0,14.737 0,14.737 -28.49221,0 -28.49225,0 0,28.493 0,28.492 -14.737336,0 -14.737371,0 0,-43.23001 z m 271.167367,14.73801 0,-28.493 -29.47471,0 -29.47471,0 0,-14.737 0,-14.737 44.21209,0 44.21207,0 0,43.22899 0,43.23001 -14.73737,0 -14.73737,0 0,-28.492 z m -155.2335,-43.23 0,-14.737 33.40469,0 33.4047,0 0,14.737 0,14.737 -33.4047,0 -33.40469,0 0,-14.737 z"
       id="path4149"
       inkscape:connector-curvature="0"
       inkscape:export-xdpi="25.714285"
       inkscape:export-ydpi="25.714285" />
    <rect
       style="opacity:0.25500039;fill:#cccccc;fill-opacity:1;stroke:#000000;stroke-width:14.2857132;stroke-miterlimit:4;stroke-dasharray:none;stroke-opacity:1"
       id="rect4147"
       width="485.71429"
       height="485.71429"
       x="7.1428566"
       y="559.50488"
       inkscape:export-xdpi="25.714285"
       inkscape:export-ydpi="25.714285" />
  </g>
</svg>
